<?xml version="1.0" encoding="UTF-8"?>
<svg xmlns="http://www.w3.org/2000/svg" xmlns:xlink="http://www.w3.org/1999/xlink" width="16pt" height="16pt" viewBox="0 0 16 16" version="1.1">
<g id="surface1">
<path style=" stroke:none;fill-rule:nonzero;fill:rgb(0%,0%,0%);fill-opacity:1;" d="M 6.527344 12.058594 L 13.101562 8.261719 C 13.207031 8.203125 13.269531 8.089844 13.269531 7.972656 C 13.269531 7.855469 13.207031 7.742188 13.101562 7.683594 L 6.527344 3.886719 C 6.425781 3.828125 6.296875 3.828125 6.195312 3.886719 C 6.09375 3.945312 6.027344 4.058594 6.027344 4.175781 L 6.027344 5.945312 L 0.351562 5.945312 C 0.167969 5.945312 0.0195312 6.09375 0.0195312 6.277344 L 0.0195312 9.667969 C 0.0195312 9.851562 0.167969 10 0.351562 10 L 6.027344 10 L 6.027344 11.769531 C 6.027344 11.886719 6.09375 11.996094 6.195312 12.058594 C 6.246094 12.085938 6.304688 12.101562 6.363281 12.101562 C 6.417969 12.101562 6.476562 12.085938 6.527344 12.058594 Z M 6.527344 12.058594 "/>
<path style=" stroke:none;fill-rule:nonzero;fill:rgb(0%,0%,0%);fill-opacity:1;" d="M 13.460938 0 L 6.671875 0 C 6.488281 0 6.335938 0.148438 6.335938 0.332031 L 6.335938 1.332031 C 6.335938 1.515625 6.488281 1.667969 6.671875 1.667969 L 13.460938 1.667969 C 13.902344 1.667969 14.257812 2.023438 14.257812 2.460938 L 14.257812 13.484375 C 14.257812 13.921875 13.902344 14.277344 13.460938 14.277344 L 6.671875 14.277344 C 6.488281 14.277344 6.335938 14.425781 6.335938 14.609375 L 6.335938 15.609375 C 6.335938 15.796875 6.488281 15.945312 6.671875 15.945312 L 13.460938 15.945312 C 14.820312 15.945312 15.925781 14.839844 15.925781 13.484375 L 15.925781 2.460938 C 15.925781 1.105469 14.820312 0 13.460938 0 Z M 13.460938 0 "/>
</g>
</svg>
