<svg width="32" height="32" xmlns="http://www.w3.org/2000/svg">

 <g>
  <title>background</title>
  <rect fill="none" id="canvas_background" height="34" width="34" y="-1" x="-1"/>
 </g>
 <g>
  <title>Layer 1</title>
  <g id="surface1">
   <path id="svg_1" fill-rule="nonzero" fill="rgb(100%,100%,100%)" d="m26.9336,14l-12.26563,0c-0.58984,0 -1.0664,0.39844 -1.0664,0.89063l0,2.21875l-0.00391,0c0,0.49218 0.48047,0.89062 1.06641,0.89062c0,0 0,0 0.0039,0l7.46485,0c0.58984,0 1.0664,0.39844 1.0664,0.89063l0,0.4414c0,1.47266 -1.42969,2.66797 -3.19922,2.66797l-10.13281,0c-0.58984,0 -1.06641,-0.39844 -1.06641,-0.89062l0,-8.44141c0,-1.47266 1.42969,-2.66797 3.19922,-2.66797l14.92969,0c0.58984,0 1.06641,-0.39844 1.06641,-0.89062l0.0039,-2.21875c0,-0.49219 -0.47656,-0.89063 -1.0664,-0.89063l-14.9336,0c-4.41797,0 -8,2.98438 -8,6.66797l0,12.44141c0,0.49218 0.47657,0.89062 1.06641,0.89062l15.73437,0c3.97657,0 7.19922,-2.6875 7.19922,-6l0,-5.10937c0,-0.49219 -0.47656,-0.89063 -1.0664,-0.89063zm0,0"/>
  </g>
 </g>
</svg>