<?xml version="1.0" encoding="UTF-8"?>
<svg xmlns="http://www.w3.org/2000/svg" xmlns:xlink="http://www.w3.org/1999/xlink" width="16pt" height="16pt" viewBox="0 0 16 16" version="1.1">
<g id="surface1">
<path style=" stroke:none;fill-rule:nonzero;fill:rgb(0%,0%,0%);fill-opacity:1;" d="M 7.980469 7.871094 C 9.945312 7.871094 11.539062 6.105469 11.539062 3.933594 C 11.539062 1.765625 9.941406 0 7.980469 0 C 6.019531 0 4.425781 1.765625 4.425781 3.933594 C 4.425781 6.105469 6.019531 7.871094 7.980469 7.871094 Z M 7.980469 7.871094 "/>
<path style=" stroke:none;fill-rule:nonzero;fill:rgb(0%,0%,0%);fill-opacity:1;" d="M 12.078125 7.355469 C 11.871094 7.308594 11.660156 7.398438 11.546875 7.578125 C 10.273438 9.640625 8.222656 9.699219 7.992188 9.699219 C 7.765625 9.699219 5.710938 9.640625 4.441406 7.582031 C 4.328125 7.398438 4.113281 7.308594 3.90625 7.355469 C 1.144531 7.960938 0.417969 12.132812 0.632812 15.519531 C 0.648438 15.78125 0.867188 15.988281 1.128906 15.988281 L 14.855469 15.988281 C 15.121094 15.988281 15.339844 15.78125 15.355469 15.519531 C 15.570312 12.128906 14.84375 7.957031 12.078125 7.355469 Z M 12.078125 7.355469 "/>
</g>
</svg>
