<?xml version="1.0" encoding="UTF-8"?>
<svg xmlns="http://www.w3.org/2000/svg" xmlns:xlink="http://www.w3.org/1999/xlink" width="25pt" height="25pt" viewBox="0 0 25 25" version="1.1">
<g id="surface1">
<path style=" stroke:none;fill-rule:nonzero;fill:rgb(100%,100%,100%);fill-opacity:1;" d="M 24.027344 10 L 11.25 10 C 10.636719 10 10.140625 10.496094 10.140625 11.109375 L 10.136719 13.890625 C 10.136719 14.503906 10.636719 15 11.25 15 L 19.027344 15 C 19.640625 15 20.140625 15.496094 20.140625 16.109375 L 20.140625 16.667969 C 20.140625 18.507812 18.648438 20 16.804688 20 L 6.25 20 C 5.636719 20 5.136719 19.503906 5.136719 18.890625 L 5.136719 8.332031 C 5.136719 6.492188 6.628906 5 8.472656 5 L 24.023438 5 C 24.636719 5 25.136719 4.503906 25.136719 3.890625 L 25.136719 1.109375 L 25.140625 1.109375 C 25.140625 0.496094 24.640625 0 24.027344 0 L 8.472656 0 C 3.871094 0 0.140625 3.730469 0.140625 8.332031 L 0.140625 23.890625 C 0.140625 24.503906 0.636719 25 1.25 25 L 17.640625 25 C 21.78125 25 25.140625 21.640625 25.140625 17.5 L 25.140625 11.109375 C 25.140625 10.496094 24.640625 10 24.027344 10 Z M 24.027344 10 "/>
</g>
</svg>
