<?xml version="1.0" encoding="UTF-8"?>
<svg xmlns="http://www.w3.org/2000/svg" xmlns:xlink="http://www.w3.org/1999/xlink" width="25pt" height="25pt" viewBox="0 0 25 25" version="1.1">
<g id="surface1">
<path style=" stroke:none;fill-rule:nonzero;fill:rgb(0%,0%,0%);fill-opacity:1;" d="M 23.890625 10 L 11.109375 10 C 10.496094 10 10 10.496094 10 11.109375 L 10 13.890625 C 10 14.503906 10.496094 15 11.109375 15 L 18.890625 15 C 19.503906 15 20 15.496094 20 16.109375 L 20 16.667969 C 20 18.507812 18.507812 20 16.667969 20 L 6.109375 20 C 5.496094 20 5 19.503906 5 18.890625 L 5 8.332031 C 5 6.492188 6.492188 5 8.332031 5 L 23.886719 5 C 24.5 5 24.996094 4.503906 24.996094 3.890625 L 25 1.109375 C 25 0.496094 24.503906 0 23.890625 0 L 8.332031 0 C 3.730469 0 0 3.730469 0 8.332031 L 0 23.890625 C 0 24.503906 0.496094 25 1.109375 25 L 17.5 25 C 21.640625 25 25 21.640625 25 17.5 L 25 11.109375 C 25 10.496094 24.503906 10 23.890625 10 Z M 23.890625 10 "/>
</g>
</svg>
